<svg class="icon" width="24px" height="24px" viewBox="0 0 24 24" version="1.1" xmlns="http://www.w3.org/2000/svg" xmlns:xlink="http://www.w3.org/1999/xlink">
    <g stroke="none" stroke-width="1" fill="none" fill-rule="evenodd">
        <path fill="#000000" d="M4.54253663 22.102366 2 14 13 14 15.6396076 20.8577294 22 20.8577294 22 22z"></path>
        <path d="M13.3517574,9.6457045 C11.9648509,9.01768623 11,7.62151962 11,6 C11,3.790861 12.790861,2 15,2 C17.209139,2 19,3.790861 19,6 C19,7.65738762 17.991992,9.07934236 16.5555939,9.68624636 C17.2330549,9.82681241 18.5700981,10.3136794 19.7048529,12 C21.300213,14.3708104 22.185218,19.8821377 22.185218,19.8821377 L16.4647907,19.8821377 L13.9813682,13.0560729 L7.42815887,13.0560729 C7.42815887,13.0560729 7.72034181,11.9159976 9.26439068,10.7725936 C10.4324117,9.90764694 12.4421522,9.69700332 13.3517574,9.6457045 Z" fill="#000000"></path>
    </g>
</svg>